<svg id="Layer_1" data-name="Layer 1" xmlns="http://www.w3.org/2000/svg" viewBox="0 0 22.28 38.91"><defs><style>.cls-1{fill:#fff;fill-rule:evenodd;}</style></defs><path class="cls-1" d="M1.2,38.86,0,35.7H.73L1.58,38,2.4,35.7h.71L1.92,38.86Zm3.33-1.1-.39.1a1.4,1.4,0,0,0-.35.1.26.26,0,0,0-.12.21.27.27,0,0,0,.1.22.33.33,0,0,0,.25.1.62.62,0,0,0,.34-.11.48.48,0,0,0,.15-.2,1.7,1.7,0,0,0,0-.3v-.12Zm-.85-.49a.43.43,0,0,1,.15-.22A.41.41,0,0,1,4.1,37a.54.54,0,0,1,.34.08.3.3,0,0,1,.09.25v.06a5.11,5.11,0,0,1-.62.15,2,2,0,0,0-.51.14.56.56,0,0,0-.27.23.6.6,0,0,0-.1.35.63.63,0,0,0,.21.48.85.85,0,0,0,.59.19,1.05,1.05,0,0,0,.4-.07,1.12,1.12,0,0,0,.35-.23.24.24,0,0,1,0,.07.93.93,0,0,0,.06.18H5.3a1.45,1.45,0,0,1-.11-.31,2.29,2.29,0,0,1,0-.44V37.4a1.32,1.32,0,0,0-.08-.54.62.62,0,0,0-.3-.24,1.49,1.49,0,0,0-.64-.1,1.27,1.27,0,0,0-.71.16.89.89,0,0,0-.34.49l.59.1Zm2.73,1.59H5.77V36.57h.59v.33a1,1,0,0,1,.28-.31.5.5,0,0,1,.27-.07,1,1,0,0,1,.43.11l-.2.53a.66.66,0,0,0-.3-.1.42.42,0,0,0-.23.07.52.52,0,0,0-.15.26,3.86,3.86,0,0,0,0,.76v.71Zm1.71-1.19a1,1,0,0,0,.11.53.48.48,0,0,0,.43.23A.47.47,0,0,0,9,38.26a1.05,1.05,0,0,0,0-1.1A.48.48,0,0,0,8.66,37a.5.5,0,0,0-.38.17.79.79,0,0,0-.16.52Zm1.71,1.19H9.24v-.34a1,1,0,0,1-.35.3,1,1,0,0,1-.41.09.91.91,0,0,1-.71-.32,1.22,1.22,0,0,1-.3-.88,1.25,1.25,0,0,1,.29-.89,1,1,0,0,1,.73-.3.92.92,0,0,1,.7.32V35.7h.64v3.16Zm1.28-3.16v1.16a.94.94,0,0,1,.74-.34,1.06,1.06,0,0,1,.4.08.59.59,0,0,1,.26.2.71.71,0,0,1,.13.26,2.54,2.54,0,0,1,0,.46v1.34H12V37.65a1.49,1.49,0,0,0,0-.46.27.27,0,0,0-.13-.15.39.39,0,0,0-.23-.06.54.54,0,0,0-.28.08.41.41,0,0,0-.19.22,1.23,1.23,0,0,0-.05.43v1.15h-.65V35.7Zm2.16.87h.59v.31a1,1,0,0,1,.76-.36.84.84,0,0,1,.4.09.66.66,0,0,1,.28.27,1.1,1.1,0,0,1,.35-.27.86.86,0,0,1,.39-.09.88.88,0,0,1,.45.1.63.63,0,0,1,.28.3,1.4,1.4,0,0,1,.06.48v1.46h-.64V37.55a1,1,0,0,0-.06-.44.33.33,0,0,0-.28-.13.46.46,0,0,0-.25.08.45.45,0,0,0-.17.23,1.75,1.75,0,0,0,0,.47v1.1h-.64V37.61a1.6,1.6,0,0,0,0-.43.28.28,0,0,0-.1-.15.39.39,0,0,0-.2-.05.5.5,0,0,0-.27.08.48.48,0,0,0-.17.22,1.65,1.65,0,0,0-.05.47v1.11h-.64V36.57Zm5.54,1.19-.39.1a1.27,1.27,0,0,0-.35.1.26.26,0,0,0-.12.21.27.27,0,0,0,.1.22.32.32,0,0,0,.25.1.57.57,0,0,0,.33-.11.43.43,0,0,0,.16-.2,1.7,1.7,0,0,0,0-.3v-.12ZM18,37.27l-.58-.1a.89.89,0,0,1,.34-.49,1.27,1.27,0,0,1,.71-.16,1.49,1.49,0,0,1,.64.1.55.55,0,0,1,.29.24,1.14,1.14,0,0,1,.09.54v.71a2.29,2.29,0,0,0,0,.44,1.1,1.1,0,0,0,.12.31H19s0-.1-.07-.18,0-.06,0-.07a1.24,1.24,0,0,1-.35.23,1.05,1.05,0,0,1-.4.07.84.84,0,0,1-.59-.19.63.63,0,0,1-.21-.48.68.68,0,0,1,.09-.35.63.63,0,0,1,.28-.23,2,2,0,0,1,.51-.14,5.11,5.11,0,0,0,.62-.15v-.06a.3.3,0,0,0-.09-.25.56.56,0,0,0-.34-.08.41.41,0,0,0-.27.07.39.39,0,0,0-.16.22Zm4.33,1.59h-.64V37.69a1.54,1.54,0,0,0-.05-.48.31.31,0,0,0-.13-.17.4.4,0,0,0-.22-.06.53.53,0,0,0-.3.09.41.41,0,0,0-.18.23,1.92,1.92,0,0,0-.05.52v1h-.64V36.57h.59v.34a1,1,0,0,1,.8-.39,1,1,0,0,1,.39.07.62.62,0,0,1,.27.19.58.58,0,0,1,.12.25,2,2,0,0,1,0,.41v1.42Zm-5-3H19.6v.35H17.26Z"/><path class="cls-1" d="M15.51,21.15l-2.77,5.08,2.42,4c.18.29.46.28.62,0l4.41-8.46c.15-.3.29-.57-.16-.57Zm-8-1.53,2.62,4.17V19.62h2.12v4.17l2.4-4.17H20.3c1.65,0,2.42.9,1.5,2.57L16.46,32h-4.2v1.89H10.14V32H6.42L.35,22.19c-.46-.75-.58-2.57,1.19-2.57Zm-.68-1.83C-.69,13,6,.94,14.3,4.86c3.69,1.75,7.18,8.14,1,12.93,2.89-5.68-.87-8.65-4.18-8.66-2.93,0-6.9,2.7-4.27,8.66Zm2.4,1.31a4.12,4.12,0,0,1-.76-2.36,2.57,2.57,0,0,1,2.72-2.48A2.55,2.55,0,0,1,13.74,17,2.82,2.82,0,0,1,12.83,19C24.2,17.09,23-.67,10.36,0,.16.79-2.57,16.39,9.24,19.1Z"/></svg>