<!DOCTYPE svg PUBLIC "-//W3C//DTD SVG 1.1//EN" "http://www.w3.org/Graphics/SVG/1.1/DTD/svg11.dtd">
<!-- Uploaded to: SVG Repo, www.svgrepo.com, Transformed by: SVG Repo Mixer Tools -->
<svg fill="#008B47" height="800px" width="800px" version="1.1" id="Layer_1" xmlns="http://www.w3.org/2000/svg" xmlns:xlink="http://www.w3.org/1999/xlink" viewBox="0 0 512 512" xml:space="preserve">
<g id="SVGRepo_bgCarrier" stroke-width="0"/>
<g id="SVGRepo_tracerCarrier" stroke-linecap="round" stroke-linejoin="round"/>
<g id="SVGRepo_iconCarrier"> <g> <g> <path d="M497.691,185.719l-156.65-22.763L270.983,21.007c-6.118-12.396-23.848-12.398-29.966,0l-70.056,141.949l-156.65,22.762 c-13.678,1.988-19.163,18.846-9.26,28.499L118.403,324.71L91.645,480.727c-2.337,13.624,12.007,24.048,24.243,17.614L256,424.681 l140.113,73.66c12.165,6.397,26.594-3.9,24.243-17.614L393.597,324.71L506.95,214.218 C516.846,204.572,511.375,187.707,497.691,185.719z M363.98,306.912c-3.938,3.839-5.734,9.369-4.805,14.789l22.521,131.307 l-117.921-61.994c-4.866-2.559-10.683-2.56-15.55,0l-117.919,61.993l22.521-131.306c0.929-5.42-0.868-10.951-4.805-14.789 l-95.4-92.992l131.84-19.157c5.443-0.791,10.147-4.209,12.58-9.141L256,66.156l58.96,119.466c2.434,4.931,7.139,8.35,12.58,9.141 l131.84,19.157L363.98,306.912z"/> </g> </g> <g> <g> <path d="M350.752,233.456l-55.116-8.001l-24.654-49.956c-6.116-12.393-23.846-12.401-29.966,0l-24.652,49.956l-55.116,8.001 c-13.677,1.984-19.165,18.844-9.264,28.498l39.88,38.886l-9.416,54.921c-2.336,13.622,12.006,24.05,24.247,17.611L256,347.436 l49.306,25.936c12.165,6.399,26.598-3.896,24.246-17.611l-9.416-54.921l39.88-38.886 C369.911,252.306,364.438,235.443,350.752,233.456z M290.52,283.046c-3.937,3.839-5.732,9.368-4.804,14.786l5.177,30.202 l-27.116-14.264c-2.435-1.281-5.106-1.922-7.778-1.922c-2.672,0-5.343,0.641-7.778,1.922l-27.115,14.264l5.177-30.201 c0.929-5.419-0.867-10.949-4.804-14.786l-21.93-21.383l30.309-4.401c5.444-0.79,10.149-4.208,12.583-9.141L256,220.648 l13.558,27.474c2.434,4.932,7.14,8.351,12.583,9.141l30.308,4.4L290.52,283.046z"/> </g> </g> </g>
</svg>