<?xml version="1.0" encoding="utf-8"?>
<!-- Generator: Adobe Illustrator 25.2.0, SVG Export Plug-In . SVG Version: 6.00 Build 0)  -->
<svg version="1.1" id="Layer_1" xmlns="http://www.w3.org/2000/svg" xmlns:xlink="http://www.w3.org/1999/xlink" x="0px" y="0px"
	 viewBox="0 0 36 36" style="enable-background:new 0 0 36 36;" xml:space="preserve">
<style type="text/css">
	.st0{fill:#008136;}
</style>
<path class="st0" d="M30.7,5.3c-7-7-18.4-7-25.5,0s-7,18.4,0,25.5s18.4,7,25.5,0c3.4-3.4,5.3-8,5.3-12.7C36,13.2,34.1,8.6,30.7,5.3z
	 M28.9,28.9c-6,6-15.8,6.1-21.9,0S1,13.1,7,7.1S22.9,1,28.9,7c2.9,2.9,4.5,6.8,4.5,11C33.5,22.1,31.8,26,28.9,28.9z"/>
<path class="st0" d="M17.2,9.5L17.2,9.5L17.2,9.5L17.2,9.5"/>
<path class="st0" d="M19,9.5c1.5,1.5,6.2,6.1,6.2,6.1c0.5,0.5,0.5,1.3,0,1.8s-1.3,0.5-1.8,0l-4.2-4.2v12.7c0,0.7-0.6,1.3-1.2,1.3
	c0,0,0,0,0,0H18c-0.7,0-1.3-0.6-1.3-1.3c0,0,0,0,0,0V13.4l-4.2,4.2c-0.5,0.5-1.3,0.4-1.8-0.2c-0.4-0.5-0.4-1.2,0-1.6
	c0,0,4.8-4.8,6.4-6.3C17.9,8.8,18.5,8.9,19,9.5z"/>
</svg>
