<svg xmlns="http://www.w3.org/2000/svg" width="100" height="150" viewBox="0 0 100 150">
  <g id="Group_143" data-name="Group 143" transform="translate(-195 -661)">
    <path id="Path_109" data-name="Path 109" d="M70.7,0H54.688V-121a37.07,37.07,0,0,1-5.42,4.248,88.347,88.347,0,0,1-8.008,4.736q-4.443,2.344-9.375,4.395a68.132,68.132,0,0,1-9.619,3.223v-16.211a93.105,93.105,0,0,0,11.182-3.955q5.908-2.49,11.621-5.566t10.791-6.445a85.672,85.672,0,0,0,8.789-6.592H70.7Z" transform="translate(198.734 808)" fill="#fff"/>
    <rect id="Rectangle_150" data-name="Rectangle 150" width="100" height="150" transform="translate(195 661)" fill="none"/>
  </g>
</svg>
