<svg xmlns="http://www.w3.org/2000/svg" width="100" height="150" viewBox="0 0 100 150">
  <g id="Group_144" data-name="Group 144" transform="translate(-417 -661)">
    <path id="Path_110" data-name="Path 110" d="M75.391-103.32a28.955,28.955,0,0,0-2-11.23,22.246,22.246,0,0,0-5.469-7.959,22.407,22.407,0,0,0-8.154-4.736,31.931,31.931,0,0,0-10.156-1.562,33.594,33.594,0,0,0-9.18,1.27,44.627,44.627,0,0,0-8.74,3.516,53.766,53.766,0,0,0-8.2,5.371,59.255,59.255,0,0,0-7.373,6.934v-17.187A47.883,47.883,0,0,1,31.2-138.916q8.35-3.467,20.361-3.467a49.155,49.155,0,0,1,15.918,2.49,36.5,36.5,0,0,1,12.7,7.275A33.633,33.633,0,0,1,88.623-120.8,39.854,39.854,0,0,1,91.7-104.687a55.254,55.254,0,0,1-1.9,15.039,46.51,46.51,0,0,1-5.762,12.7,61.259,61.259,0,0,1-9.717,11.426,137.638,137.638,0,0,1-13.77,11.133q-9.863,7.031-16.26,12.012a71.878,71.878,0,0,0-10.156,9.326,27.063,27.063,0,0,0-5.273,8.691,30.381,30.381,0,0,0-1.514,10.01H97.07V0H10.645V-6.934A57.78,57.78,0,0,1,12.6-22.754a41.08,41.08,0,0,1,6.445-12.988,72.082,72.082,0,0,1,11.768-12.3Q38.086-54.2,48.633-61.914A112.673,112.673,0,0,0,61.377-72.363a54.326,54.326,0,0,0,8.252-9.961,35.774,35.774,0,0,0,4.443-10.107A43.58,43.58,0,0,0,75.391-103.32Z" transform="translate(413.355 808)" fill="#fff"/>
    <rect id="Rectangle_151" data-name="Rectangle 151" width="100" height="150" transform="translate(417 661)" fill="none"/>
  </g>
</svg>
