<svg xmlns="http://www.w3.org/2000/svg" width="100" height="150" viewBox="0 0 100 150">
  <g id="Group_145" data-name="Group 145" transform="translate(-616 -661)">
    <path id="Path_111" data-name="Path 111" d="M93.066-39.648A40.824,40.824,0,0,1,89.5-22.412,38.056,38.056,0,0,1,79.443-9.131,46.425,46.425,0,0,1,63.867-.586a63.006,63.006,0,0,1-20.02,3.027q-20.02,0-31.836-7.617V-22.363A51.017,51.017,0,0,0,44.434-11.23a44.061,44.061,0,0,0,13.232-1.855,29.67,29.67,0,0,0,10.156-5.371,23.858,23.858,0,0,0,6.543-8.5,26.533,26.533,0,0,0,2.295-11.23q0-27.441-39.062-27.441H25.977V-79.2H37.012q34.57,0,34.57-25.781,0-23.828-26.367-23.828-14.844,0-27.832,9.961v-15.527q13.379-8.008,31.836-8.008a48.918,48.918,0,0,1,15.918,2.441,36.473,36.473,0,0,1,12.207,6.836,30.293,30.293,0,0,1,7.861,10.547,32.553,32.553,0,0,1,2.783,13.574q0,27.637-27.93,35.547v.391A44.18,44.18,0,0,1,73.242-69.58,35.18,35.18,0,0,1,83.691-62.6,31.126,31.126,0,0,1,90.576-52.49,32.27,32.27,0,0,1,93.066-39.648Z" transform="translate(612.988 806.383)" fill="#fff"/>
    <rect id="Rectangle_152" data-name="Rectangle 152" width="100" height="150" transform="translate(616 661)" fill="none"/>
  </g>
</svg>
