<svg xmlns="http://www.w3.org/2000/svg" width="100" height="150" viewBox="0 0 100 150">
  <g id="Group_141" data-name="Group 141" transform="translate(-423 -934)">
    <path id="Path_113" data-name="Path 113" d="M94.629-42.773a47.134,47.134,0,0,1-3.516,18.555A40.568,40.568,0,0,1,81.1-9.961,44.821,44.821,0,0,1,65.43-.781,61.3,61.3,0,0,1,45.02,2.441q-19.531,0-29-5.859V-20.41q14.258,9.18,29.2,9.18a39.515,39.515,0,0,0,13.721-2.246,30.488,30.488,0,0,0,10.4-6.25,26.761,26.761,0,0,0,6.592-9.668,32.725,32.725,0,0,0,2.295-12.4q0-13.672-9.18-21.436T42.383-71q-2.832,0-5.957.1t-6.25.244q-3.125.146-6.1.342t-5.42.488l4.785-70.215H88.184v14.453H37.3L34.473-84.473q3.125-.2,6.641-.342t6.25-.146a62.85,62.85,0,0,1,19.922,2.93,42.209,42.209,0,0,1,14.893,8.35A35.008,35.008,0,0,1,91.455-60.4,46.714,46.714,0,0,1,94.629-42.773Z" transform="translate(418 1079)" fill="#fff"/>
    <rect id="Rectangle_148" data-name="Rectangle 148" width="100" height="150" transform="translate(423 934)" fill="none"/>
  </g>
</svg>
