<svg xmlns="http://www.w3.org/2000/svg" width="100" height="150" viewBox="0 0 100 150">
  <g id="Group_140" data-name="Group 140" transform="translate(-623 -934)">
    <path id="Path_112" data-name="Path 112" d="M99.8-44.434a51.876,51.876,0,0,1-3.32,18.848A45.306,45.306,0,0,1,87.3-10.742,41.01,41.01,0,0,1,73.34-1.025,44.227,44.227,0,0,1,55.762,2.441a39.952,39.952,0,0,1-18.9-4.395A40.009,40.009,0,0,1,22.705-14.6a60.658,60.658,0,0,1-8.838-20.166A109.251,109.251,0,0,1,10.84-61.621a126.2,126.2,0,0,1,4.053-33.154,80.545,80.545,0,0,1,11.523-25.488,53.123,53.123,0,0,1,18.018-16.357,48.276,48.276,0,0,1,23.535-5.762q14.453,0,23.242,4v15.137a49.357,49.357,0,0,0-22.852-5.566,34.052,34.052,0,0,0-16.895,4.2,38.8,38.8,0,0,0-12.891,11.865,57.874,57.874,0,0,0-8.252,18.506,93.892,93.892,0,0,0-2.881,24.121h.391Q37.5-87.6,59.766-87.6a42.032,42.032,0,0,1,16.553,3.125,35.736,35.736,0,0,1,12.6,8.838,39.792,39.792,0,0,1,8.057,13.623A51.855,51.855,0,0,1,99.8-44.434ZM83.4-42.383a43.581,43.581,0,0,0-1.855-13.184,28.6,28.6,0,0,0-5.322-9.961,22.948,22.948,0,0,0-8.545-6.3,28.756,28.756,0,0,0-11.523-2.2,26.973,26.973,0,0,0-11.035,2.246,27.479,27.479,0,0,0-8.789,6.1,28.279,28.279,0,0,0-5.811,8.984,28.451,28.451,0,0,0-2.1,10.889,43.436,43.436,0,0,0,2.051,13.525A34.937,34.937,0,0,0,36.23-21.289a27.4,27.4,0,0,0,8.838,7.373A24.141,24.141,0,0,0,56.445-11.23,26.054,26.054,0,0,0,67.48-13.525a24.619,24.619,0,0,0,8.5-6.4,29.611,29.611,0,0,0,5.469-9.814A38.9,38.9,0,0,0,83.4-42.383Z" transform="translate(618 1079)" fill="#fff"/>
    <rect id="Rectangle_147" data-name="Rectangle 147" width="100" height="150" transform="translate(623 934)" fill="none"/>
  </g>
</svg>
