<svg xmlns="http://www.w3.org/2000/svg" width="136.853" height="149.633" viewBox="0 0 136.853 149.633"><defs><style>.a{fill:#323032;fill-rule:evenodd;opacity:0.15;}</style></defs><path class="a" d="M37.877,146.3c-.3-2.733-.057-51.145-.057-55.354,0-4.386-.439-8.8,1.194-12.65,3.35-7.912,9.643-10.1,17.628-10.1,3.566,0,10.45-.393,13.623.1-.214,16.79-.008,33.726-.008,50.532,0,4.872-.457,7.121,2.11,10.666,1.586,2.19,4.653,3.673,8.677,3.666q12.577-.018,25.156,0c3.482,0,9.65-1.08,9.527,3.345-.115,4.15-5.857,3.1-9.279,3.1h-50.3c-4.256,0-7.33.267-11.006,1.829-2.065.877-6.342,3.563-7.261,4.872Zm23.249,32.3c6.595,0,95.739.272,97.563-.091,2.888-.575,3.231-4.157,1.137-5.746-1.471-1.117-6.87-.634-9.051-.634H72.83c-6.245,0-13.282.3-19.43-.019-11.914-.624-12.683-19.4,1.25-19.511,12.931-.1,25.912,0,38.85,0,6.423,0,13.022.148,19.423-.007,17.836-.432,22.05-25.863,4.6-31.642-3.966-1.313-22.04-.776-28.257-.776-2.2,0-7.966-.277-9.714.051a3.249,3.249,0,0,0-1.474,5.8c1.527,1.021,6.976.606,9.2.606,3.975,0,25.581-.491,28.491.547a10.317,10.317,0,0,1,5.277,4.449,9.738,9.738,0,0,1-4.047,13.432c-3.312,1.776-13.787,1.075-18.264,1.075H59.88c-6.986,0-11.465-.285-16.081,3.666-8.378,7.175-7.911,19.4.877,25.8,5.022,3.654,9.739,3,16.451,3ZM161.21,166.079c.224-8.056-.155-7.153-16.184-6.942l-.042-6.551c4.56.059,12.211-.471,16.191.506.38-4.472.327-6.978-4.42-6.966-3.887.008-7.794-.037-11.679.019l-.1-6.553c5.223.04,11.234-.483,16.255.493-.01-4.685.569-6.966-4.727-6.935-3.789.02-7.583,0-11.372.005L145,126.626c5.437.03,11.081-.452,16.243.479-.137-7.776,1.125-7.165-16.265-6.922l.025-6.539c5.375-.04,11.158-.4,16.23.474-.015-8.2.327-6.976-16.253-6.934l.015-6.544c5.076.044,11.5-.459,16.216.484.248-8.368-1.733-6.946-9.437-6.946-5.469,0-11.027.1-16.484-.015-.363,10.817-.025,22.242-.025,33.125,0,11.4.989,15.207-5.3,23.75a24.72,24.72,0,0,1-6.951,5.508,24.308,24.308,0,0,1-6.269,2.193c-4.137.82-11.708.388-16.267.388H58.885c-2.394,0-5.847-.609-7.347,1.14a3.253,3.253,0,0,0,1.724,5.242c1.577.314,80.711.079,91.786.079,5.014,0,11.507-.42,16.162.489Zm-84.43-51.938c4.491-.943,22.8-.5,28.673-.5,7.372,0,12.326-.548,18.694,3.173a24.9,24.9,0,0,1,4.118,3.126c-.226-4.346-4.928-9.631-9.257-11.421-5.859-2.423-13.019-.857-19.5-1.39l.014-6.441c3.845-.25,13.476-.344,17.022.3a24.221,24.221,0,0,1,11.791,5.935,16.042,16.042,0,0,0-9.316-11.366c-5.154-2.4-13.458-1-19.489-1.424L99.512,87.7c3.671-.315,13.631-.305,17.092.327a21.748,21.748,0,0,1,9.242,3.938c1.4.978,1.733,1.589,2.49,1.984-.9-5.235-5.243-9.626-9.277-11.369-5.766-2.49-13.054-1-19.5-1.431l-.046-6.434c3.462-.309,13.891-.309,17.124.317,3.426.666,8.012,2.618,10.5,4.941a5.9,5.9,0,0,0,1.186.987c-.725-5.026-5.34-9.77-9.21-11.379-5.621-2.338-13.164-1.124-19.518-1.405L99.526,61.7c4.26-.2,13.387-.354,17.168.361a23.684,23.684,0,0,1,11.62,5.92c-.778-5.409-5.215-9.54-9.2-11.349-5.186-2.355-13.4-1.226-19.484-1.436l-.115-6.472c7.5-.363,17.449-.889,23.673,2.578a25.6,25.6,0,0,1,5.086,3.686c-.378-4.342-4.233-8.324-6.7-10.019C117.25,42,113.029,42.227,107.2,42.227l-25.4,0c-3.006-.014-4.918.493-5.016,3.646-.348,11.138.005,22.91.005,34.119,0,11.383.03,22.769,0,34.151Zm-6.421-69.48c.12,2.269.273,15.671-.143,17.033-6,.317-12.37-.056-18.473.169-3.445.017-7.271,1.761-9.733,3.246a20.279,20.279,0,0,0-6.559,6.146c-4.661,6.553-4.16,12.4-4.16,21.432v51.281c0,12.287-2.087,24.914,5.419,33.117,8.871,9.694,17.152,8.042,30.394,8.042h89.65c4.322.012,7.212-1.545,8.985-3.8,2.271-2.89,2.023-6.686,2.023-10.968V106.378c0-6.623,1.621-16.133-7.278-18.4-2.485-.633-21.264-.39-25.151-.327-.806-7.273.612-23.226-.165-31.43a22.642,22.642,0,0,0-12.972-18.365C117.468,35.622,114,35.7,108.44,35.7c-4.677,0-28.354-.368-31.01.344C73.886,36.989,70.412,40.363,70.358,44.662Z" transform="translate(-31.023 -35.602)"/></svg>