<svg xmlns="http://www.w3.org/2000/svg" width="137.232" height="97.847" viewBox="0 0 137.232 97.847"><defs><style>.a{fill:#323032;fill-rule:evenodd;opacity:0.17;}</style></defs><path class="a" d="M33.3,201.918a3.063,3.063,0,0,1-4.415-4.246c.045-.046,15.33-16.233,34.984-16.233,15.683,0,25.214,8.008,34.744,16.017,8.659,7.275,17.32,14.552,30.81,14.552,17.026,0,30.53-14.295,30.569-14.336a3.063,3.063,0,0,1,4.415,4.246c-.045.046-15.33,16.233-34.984,16.233-15.683,0-25.214-8.009-34.744-16.017-8.659-7.275-17.32-14.552-30.81-14.552-17.026,0-30.53,14.295-30.569,14.336Zm0,61.136a3.063,3.063,0,0,1-4.415-4.247c.045-.046,15.33-16.232,34.984-16.232,15.683,0,25.214,8.007,34.744,16.016,8.659,7.275,17.32,14.553,30.81,14.553,17.026,0,30.53-14.3,30.569-14.337a3.063,3.063,0,1,1,4.415,4.247c-.045.046-15.33,16.232-34.984,16.232-15.683,0-25.214-8.008-34.744-16.015-8.659-7.276-17.32-14.553-30.81-14.553-17.026,0-30.53,14.3-30.569,14.337Zm0-15.285c.039-.041,13.543-14.336,30.569-14.336,13.49,0,22.15,7.276,30.81,14.552C104.21,255.994,113.741,264,129.424,264c19.655,0,34.939-16.186,34.984-16.233a3.063,3.063,0,1,0-4.415-4.246c-.039.041-13.543,14.336-30.569,14.336-13.49,0-22.15-7.276-30.81-14.552-9.529-8.008-19.061-16.017-34.744-16.017-19.655,0-34.939,16.187-34.984,16.233A3.063,3.063,0,0,0,33.3,247.77Zm0-15.284c.039-.041,13.543-14.336,30.569-14.336,13.49,0,22.15,7.275,30.81,14.552,9.529,8.007,19.061,16.016,34.744,16.016,19.655,0,34.939-16.185,34.984-16.232a3.063,3.063,0,1,0-4.415-4.246c-.039.041-13.543,14.336-30.569,14.336-13.49,0-22.15-7.276-30.81-14.553-9.529-8.007-19.061-16.016-34.744-16.016-19.655,0-34.939,16.185-34.984,16.233a3.063,3.063,0,0,0,4.415,4.246Zm0-15.285c.039-.041,13.543-14.336,30.569-14.336,13.49,0,22.15,7.276,30.81,14.553,9.529,8.007,19.061,16.016,34.744,16.016,19.655,0,34.939-16.185,34.984-16.233a3.063,3.063,0,0,0-4.415-4.246c-.039.041-13.543,14.336-30.569,14.336-13.49,0-22.15-7.276-30.81-14.552-9.529-8.008-19.061-16.016-34.744-16.016-19.655,0-34.939,16.185-34.984,16.232A3.063,3.063,0,0,0,33.3,217.2Z" transform="translate(-28.031 -181.439)"/></svg>