<svg id="Layer_1" data-name="Layer 1" xmlns="http://www.w3.org/2000/svg" viewBox="0 0 34.37 35.85"><defs><style>.cls-1{fill:none;stroke:#67919c;stroke-linecap:round;stroke-linejoin:round;stroke-width:1.2px;}</style></defs><path class="cls-1" d="M17.19,15.5a3.45,3.45,0,1,1-3.45,3.44,3.44,3.44,0,0,1,3.45-3.44M26.53.6l2,6.45-6.85-.7m-4.43.87L18,9.52M12,8.45a11.91,11.91,0,0,1,2.59-.93,11.65,11.65,0,0,1,2.73-.3m-4.72,5.22-.6-4M11,13.87a7.71,7.71,0,0,1,1.53-1.43M7.08,13l3.94.87M5.48,18.23A12.27,12.27,0,0,1,6,15.52,11.9,11.9,0,0,1,7.08,13m2.16,6.7L5.48,18.23m4.23,3.52a8.41,8.41,0,0,1-.3-1,7.27,7.27,0,0,1-.17-1M7,24.73l2.72-3m1,7a11.87,11.87,0,0,1-3.73-4m6.88,1.48-3.15,2.51m5.16-1.9a8.2,8.2,0,0,1-2-.61m3.23,4.46-1.22-3.85m6.54,2.61a11.73,11.73,0,0,1-2.59.93,12.23,12.23,0,0,1-2.73.31m4.72-5.23.6,4M23.36,24a8,8,0,0,1-1.54,1.43m5.48-.56L23.36,24m5.53-4.35a11.86,11.86,0,0,1-1.59,5.22m-2.16-6.7,3.75,1.48m-4.23-3.53a8.44,8.44,0,0,1,.31,1,9.38,9.38,0,0,1,.17,1m2.24-5-2.72,3m-1-7a11.67,11.67,0,0,1,2.09,1.78,11.11,11.11,0,0,1,1.63,2.22M20.5,11.68l3.16-2.52m-5.17,1.9a8.22,8.22,0,0,1,2,.62m12.26,1.66a16,16,0,0,1,1,5.6A16.44,16.44,0,0,1,17.19,35.25,16.45,16.45,0,0,1,.6,18.94,16.45,16.45,0,0,1,17.19,2.63,16.76,16.76,0,0,1,28.55,7.05"/></svg>