<svg xmlns="http://www.w3.org/2000/svg" width="80.717" height="142.892" viewBox="0 0 80.717 142.892"><defs><style>.a{fill:#323032;fill-rule:evenodd;opacity:0.15;}</style></defs><path class="a" d="M174.077,148.439a2.048,2.048,0,0,1,.335.354l.818,1.316c3.854,6.76,1.25,14.772-1.154,16.4-1.8-1.8-3.132-5.8-3.1-9.064a15.63,15.63,0,0,1,3.1-9.011Zm3.763-6.215c1.9,4.266,5.07,6.56,5.634,13.7.559,7.085-1.658,10.019-4.379,14.617,2.341,2.307,11.785-5.084,10.462-14.983-.614-4.583-4.376-9.323-6.75-13.5a28.235,28.235,0,0,0-2.5-4.034,31.6,31.6,0,0,0-2.465,4.2Zm20.571-7.261,4.838.013,5.563,9.167c1.626,2.739,4.2,6.3,5.109,9.641a14.565,14.565,0,0,1-11.018,18.07c.949-2.081,7.872-8.226,4.632-20-1.592-5.792-8.242-13.91-9.123-16.887Zm-12.4-.006,4.883.018a52.184,52.184,0,0,1,2.792,4.537c5.31,8.858,12.345,16.736,5.772,26.424-1.545,2.276-5.055,5.405-9.122,5.95,1.5-2.315,3.121-3.088,4.683-8.249,4.193-13.857-7.453-22.978-9.009-28.68Zm-15.672,36.87c-1.271-.519-4.06-5.913-4.766-8.276a21.88,21.88,0,0,1-.076-11.575c1.551-5.7,8.479-14.477,9.191-17l-4.9.023-5.718,9.36c-1.642,2.757-4.269,6.36-5.1,9.889-2.415,10.295,6.747,17.675,11.366,17.581Zm-12.368.013c-6.462-.177-16.653-10.768-9.162-22.751l5.732-9.5a34.791,34.791,0,0,1,2.866-4.609l4.881-.011a32.406,32.406,0,0,1-2.236,3.95c-4.737,7.955-9.887,14.14-6.86,24.631.672,2.328,3.475,7.669,4.778,8.286Zm.67-86.355,43.263.048.006,43.191-43.266-.056,0-43.182Zm27.81-19.837c-1.646-1.822-3.129-5.876-3.143-9.091-.013-3.093,1.394-7.427,3.143-8.993,4.535,4.543,3.789,13.984,0,18.084ZM180.267,76a37.266,37.266,0,0,1-2.61-4.223c-2.4-3.958-6.056-9.173-6.6-13.357a14.644,14.644,0,0,1,2.773-10.691c1.329-1.761,5.268-5.824,7.667-4.268-.636,1.244-1.432,2.189-2.151,3.607a20.5,20.5,0,0,0-1.59,4.124,20.986,20.986,0,0,0-.1,10.13,25.385,25.385,0,0,0,3.557,7.841c.76,1.249,1.908,2.286,1.176,3.527A24.858,24.858,0,0,1,180.267,76Zm17.958,3.261c1.094-2.926,7.736-11.579,9.294-17.145,2.206-7.878-.316-14.126-4.761-19.9,7.184,1.139,13.48,9.152,11.192,18.024-.814,3.158-3.591,7.18-5.192,9.8-1.154,1.887-4.63,8.089-5.637,9.214l-4.9,0Zm-12.392-.006,4.909,0,5.611-9.239c1.688-2.823,4.243-6.335,5.186-9.794A14.55,14.55,0,0,0,190.378,42.22c1.825,2.409,3.61,4.625,4.661,8.379,2.434,8.7-.432,13.784-4.282,20.24-.9,1.506-4.53,7.3-4.923,8.418Zm-28.42-.066c-.992-1.228-2.03-3.364-2.9-4.741-2.112-3.351-7.024-11.044-7.867-14.272a14.546,14.546,0,0,1,11.137-17.941c-1.9,2.562-3.6,4.625-4.7,8.561a20.8,20.8,0,0,0,.01,11.493c1.714,5.692,8.226,14.147,9.233,16.979l-4.915-.079Zm17.309.076c-1.887-5.693-13.309-15.358-9.13-28.817a22.49,22.49,0,0,1,1.938-4.484c.909-1.59,2.314-3.093,2.661-3.786a15.59,15.59,0,0,0-5.492,2.384,9.926,9.926,0,0,0-1.083.828c-4.384,4.173-6.58,10.2-4.1,16.436.833,2.093,7.377,12.845,8.954,15.321,1.7,2.671.185,2.086,6.248,2.117ZM220.5,59.17a20.764,20.764,0,0,0-10.079-20.633c-3.77-2.22-7.466-2.914-12.537-2.911H166.7c-5.3,0-9.128-.353-13.858,1.593-11.575,4.764-16.8,18.548-9.583,30.626,1.969,3.3,3.844,6.454,5.795,9.676,4.293,7.087,3.377,4.434,3.377,12.109l0,39.029c.019,3.108-.683,3.435-2.012,5.623-1.983,3.269-3.813,6.407-5.795,9.676-1.961,3.232-3.968,6.3-4.519,10.95a20.859,20.859,0,0,0,10.3,20.745c4.218,2.36,7.28,2.823,12.724,2.823h31.187c5.5,0,8.965.311,13.8-1.746,11.245-4.788,16.483-18.566,9.175-30.574-1.935-3.179-3.815-6.346-5.793-9.679-4.25-7.158-3.361-4.1-3.361-12.1l0-39.029c-.019-2.98.785-3.411,2.061-5.55,1.946-3.262,3.85-6.431,5.795-9.678,1.925-3.217,4-6.265,4.514-10.947ZM170.871,97.7l0,1.216.011,17.617c5.455-.058,13.932.2,18.794-.069l0-18.654c-2.594-.313-14.963-.1-18.8-.11Zm-6.222,24.944,31.253.1,0-31.188c-1.917-.311-29.837-.293-31.266.032Z" transform="translate(-139.944 -35.601)"/></svg>